<mxfile host="app.diagrams.net" agent="Mozilla/5.0 (Windows NT 10.0; Win64; x64) AppleWebKit/537.36 (KHTML, like Gecko) Chrome/138.0.0.0 Safari/537.36" version="28.0.6">
  <diagram name="Página-1" id="zDthv4UH2UhGADSPTOkF">
    <mxGraphModel dx="1188" dy="676" grid="1" gridSize="10" guides="1" tooltips="1" connect="1" arrows="1" fold="1" page="1" pageScale="1" pageWidth="827" pageHeight="1169" math="0" shadow="0">
      <root>
        <mxCell id="0" />
        <mxCell id="1" parent="0" />
        <mxCell id="HI6m1FKxOW7VXYWXSe8K-4" value="Caixa de e-mail" style="swimlane;whiteSpace=wrap;html=1;fontSize=12;verticalAlign=top;" parent="1" vertex="1">
          <mxGeometry x="40" y="50" width="250" height="600" as="geometry">
            <mxRectangle x="40" y="50" width="120" height="30" as="alternateBounds" />
          </mxGeometry>
        </mxCell>
        <mxCell id="qqiFaZxsoZSTqiKRWhiH-2" value="" style="edgeStyle=orthogonalEdgeStyle;rounded=0;orthogonalLoop=1;jettySize=auto;html=1;" parent="HI6m1FKxOW7VXYWXSe8K-4" source="HI6m1FKxOW7VXYWXSe8K-8" target="HI6m1FKxOW7VXYWXSe8K-9" edge="1">
          <mxGeometry relative="1" as="geometry" />
        </mxCell>
        <mxCell id="HI6m1FKxOW7VXYWXSe8K-8" value="" style="strokeWidth=2;html=1;shape=mxgraph.flowchart.start_2;whiteSpace=wrap;fillColor=#d5e8d4;strokeColor=#82b366;" parent="HI6m1FKxOW7VXYWXSe8K-4" vertex="1">
          <mxGeometry x="20" y="57.5" width="20" height="20" as="geometry" />
        </mxCell>
        <mxCell id="HI6m1FKxOW7VXYWXSe8K-23" style="edgeStyle=orthogonalEdgeStyle;rounded=0;orthogonalLoop=1;jettySize=auto;html=1;exitX=0.5;exitY=1;exitDx=0;exitDy=0;entryX=0.5;entryY=0;entryDx=0;entryDy=0;" parent="HI6m1FKxOW7VXYWXSe8K-4" source="HI6m1FKxOW7VXYWXSe8K-9" target="HI6m1FKxOW7VXYWXSe8K-10" edge="1">
          <mxGeometry relative="1" as="geometry" />
        </mxCell>
        <mxCell id="HI6m1FKxOW7VXYWXSe8K-9" value="Lê solicitação via e-mail" style="rounded=1;whiteSpace=wrap;html=1;absoluteArcSize=1;arcSize=14;strokeWidth=2;fontSize=9;" parent="HI6m1FKxOW7VXYWXSe8K-4" vertex="1">
          <mxGeometry x="70" y="40" width="90" height="55" as="geometry" />
        </mxCell>
        <mxCell id="qqiFaZxsoZSTqiKRWhiH-51" style="edgeStyle=orthogonalEdgeStyle;rounded=0;orthogonalLoop=1;jettySize=auto;html=1;entryX=0.5;entryY=0;entryDx=0;entryDy=0;" parent="HI6m1FKxOW7VXYWXSe8K-4" source="HI6m1FKxOW7VXYWXSe8K-10" target="qqiFaZxsoZSTqiKRWhiH-5" edge="1">
          <mxGeometry relative="1" as="geometry" />
        </mxCell>
        <mxCell id="HI6m1FKxOW7VXYWXSe8K-10" value="Identifica &quot;máscara&quot; com informações da solicitação" style="rounded=1;whiteSpace=wrap;html=1;absoluteArcSize=1;arcSize=14;strokeWidth=2;fontSize=9;" parent="HI6m1FKxOW7VXYWXSe8K-4" vertex="1">
          <mxGeometry x="70" y="121" width="90" height="60" as="geometry" />
        </mxCell>
        <mxCell id="qqiFaZxsoZSTqiKRWhiH-53" style="edgeStyle=orthogonalEdgeStyle;rounded=0;orthogonalLoop=1;jettySize=auto;html=1;entryX=0.5;entryY=0;entryDx=0;entryDy=0;" parent="HI6m1FKxOW7VXYWXSe8K-4" source="qqiFaZxsoZSTqiKRWhiH-5" target="qqiFaZxsoZSTqiKRWhiH-6" edge="1">
          <mxGeometry relative="1" as="geometry" />
        </mxCell>
        <mxCell id="qqiFaZxsoZSTqiKRWhiH-5" value="" style="rhombus;whiteSpace=wrap;html=1;fillColor=#ffe6cc;strokeColor=#d79b00;" parent="HI6m1FKxOW7VXYWXSe8K-4" vertex="1">
          <mxGeometry x="105" y="220" width="20" height="20" as="geometry" />
        </mxCell>
        <mxCell id="qqiFaZxsoZSTqiKRWhiH-6" value="Responde e-mail com máscara para que o cliente possa solicitar corretamente." style="rounded=1;whiteSpace=wrap;html=1;absoluteArcSize=1;arcSize=14;strokeWidth=2;fontSize=9;" parent="HI6m1FKxOW7VXYWXSe8K-4" vertex="1">
          <mxGeometry x="70" y="280" width="90" height="55" as="geometry" />
        </mxCell>
        <mxCell id="qqiFaZxsoZSTqiKRWhiH-65" value="&lt;font style=&quot;font-size: 9px;&quot;&gt;Informações ok?&lt;/font&gt;" style="text;html=1;align=center;verticalAlign=middle;whiteSpace=wrap;rounded=0;" parent="HI6m1FKxOW7VXYWXSe8K-4" vertex="1">
          <mxGeometry x="35" y="200" width="70" height="30" as="geometry" />
        </mxCell>
        <mxCell id="qqiFaZxsoZSTqiKRWhiH-66" value="&lt;font style=&quot;font-size: 9px;&quot;&gt;Sim&lt;/font&gt;" style="text;html=1;align=center;verticalAlign=middle;whiteSpace=wrap;rounded=0;" parent="HI6m1FKxOW7VXYWXSe8K-4" vertex="1">
          <mxGeometry x="113" y="208" width="70" height="30" as="geometry" />
        </mxCell>
        <mxCell id="qqiFaZxsoZSTqiKRWhiH-79" value="&lt;font style=&quot;font-size: 9px;&quot;&gt;Não&lt;/font&gt;" style="text;html=1;align=center;verticalAlign=middle;whiteSpace=wrap;rounded=0;" parent="HI6m1FKxOW7VXYWXSe8K-4" vertex="1">
          <mxGeometry x="95" y="240" width="70" height="30" as="geometry" />
        </mxCell>
        <mxCell id="HI6m1FKxOW7VXYWXSe8K-6" value="GMM" style="swimlane;whiteSpace=wrap;html=1;startSize=23;" parent="1" vertex="1">
          <mxGeometry x="540" y="50" width="250" height="600" as="geometry" />
        </mxCell>
        <mxCell id="qqiFaZxsoZSTqiKRWhiH-46" style="edgeStyle=orthogonalEdgeStyle;rounded=0;orthogonalLoop=1;jettySize=auto;html=1;entryX=0.5;entryY=0;entryDx=0;entryDy=0;" parent="HI6m1FKxOW7VXYWXSe8K-6" source="HI6m1FKxOW7VXYWXSe8K-15" target="qqiFaZxsoZSTqiKRWhiH-24" edge="1">
          <mxGeometry relative="1" as="geometry" />
        </mxCell>
        <mxCell id="HI6m1FKxOW7VXYWXSe8K-15" value="Verifica informação da modalidade da instalação dentro do GMM" style="rounded=1;whiteSpace=wrap;html=1;absoluteArcSize=1;arcSize=14;strokeWidth=2;fontSize=9;" parent="HI6m1FKxOW7VXYWXSe8K-6" vertex="1">
          <mxGeometry x="80" y="40" width="90" height="55" as="geometry" />
        </mxCell>
        <mxCell id="HI6m1FKxOW7VXYWXSe8K-16" value="Envia e-mail direcionando para tratativa pela área de leitura e faturamento" style="rounded=1;whiteSpace=wrap;html=1;absoluteArcSize=1;arcSize=14;strokeWidth=2;fontSize=9;" parent="HI6m1FKxOW7VXYWXSe8K-6" vertex="1">
          <mxGeometry x="150" y="157" width="90" height="55" as="geometry" />
        </mxCell>
        <mxCell id="qqiFaZxsoZSTqiKRWhiH-35" style="edgeStyle=orthogonalEdgeStyle;rounded=0;orthogonalLoop=1;jettySize=auto;html=1;entryX=0.5;entryY=0;entryDx=0;entryDy=0;" parent="HI6m1FKxOW7VXYWXSe8K-6" source="qqiFaZxsoZSTqiKRWhiH-24" target="HI6m1FKxOW7VXYWXSe8K-16" edge="1">
          <mxGeometry relative="1" as="geometry">
            <mxPoint x="195" y="150" as="targetPoint" />
          </mxGeometry>
        </mxCell>
        <mxCell id="qqiFaZxsoZSTqiKRWhiH-42" style="edgeStyle=orthogonalEdgeStyle;rounded=0;orthogonalLoop=1;jettySize=auto;html=1;" parent="HI6m1FKxOW7VXYWXSe8K-6" source="qqiFaZxsoZSTqiKRWhiH-24" edge="1">
          <mxGeometry relative="1" as="geometry">
            <mxPoint x="125" y="270" as="targetPoint" />
          </mxGeometry>
        </mxCell>
        <mxCell id="qqiFaZxsoZSTqiKRWhiH-47" style="edgeStyle=orthogonalEdgeStyle;rounded=0;orthogonalLoop=1;jettySize=auto;html=1;entryX=0.5;entryY=0;entryDx=0;entryDy=0;" parent="HI6m1FKxOW7VXYWXSe8K-6" source="qqiFaZxsoZSTqiKRWhiH-24" target="qqiFaZxsoZSTqiKRWhiH-36" edge="1">
          <mxGeometry relative="1" as="geometry">
            <mxPoint x="55" y="167" as="targetPoint" />
          </mxGeometry>
        </mxCell>
        <mxCell id="qqiFaZxsoZSTqiKRWhiH-24" value="" style="rhombus;whiteSpace=wrap;html=1;fillColor=#ffe6cc;strokeColor=#d79b00;" parent="HI6m1FKxOW7VXYWXSe8K-6" vertex="1">
          <mxGeometry x="115" y="117" width="20" height="20" as="geometry" />
        </mxCell>
        <mxCell id="qqiFaZxsoZSTqiKRWhiH-36" value="Não há tratativa mapeada" style="rounded=1;whiteSpace=wrap;html=1;absoluteArcSize=1;arcSize=14;strokeWidth=2;fontSize=9;" parent="HI6m1FKxOW7VXYWXSe8K-6" vertex="1">
          <mxGeometry x="10" y="157" width="90" height="55" as="geometry" />
        </mxCell>
        <mxCell id="qqiFaZxsoZSTqiKRWhiH-43" value="" style="edgeStyle=orthogonalEdgeStyle;rounded=0;orthogonalLoop=1;jettySize=auto;html=1;" parent="HI6m1FKxOW7VXYWXSe8K-6" source="qqiFaZxsoZSTqiKRWhiH-38" target="qqiFaZxsoZSTqiKRWhiH-39" edge="1">
          <mxGeometry relative="1" as="geometry" />
        </mxCell>
        <mxCell id="qqiFaZxsoZSTqiKRWhiH-38" value="Faz consulta do relatório para instalação e período solicitado&amp;nbsp;" style="rounded=1;whiteSpace=wrap;html=1;absoluteArcSize=1;arcSize=14;strokeWidth=2;fontSize=9;" parent="HI6m1FKxOW7VXYWXSe8K-6" vertex="1">
          <mxGeometry x="80" y="273" width="90" height="55" as="geometry" />
        </mxCell>
        <mxCell id="qqiFaZxsoZSTqiKRWhiH-57" style="edgeStyle=orthogonalEdgeStyle;rounded=0;orthogonalLoop=1;jettySize=auto;html=1;entryX=0.5;entryY=0;entryDx=0;entryDy=0;" parent="HI6m1FKxOW7VXYWXSe8K-6" source="qqiFaZxsoZSTqiKRWhiH-39" target="HI6m1FKxOW7VXYWXSe8K-17" edge="1">
          <mxGeometry relative="1" as="geometry" />
        </mxCell>
        <mxCell id="qqiFaZxsoZSTqiKRWhiH-39" value="Exporta o relatório e salva em .pdf" style="rounded=1;whiteSpace=wrap;html=1;absoluteArcSize=1;arcSize=14;strokeWidth=2;fontSize=9;" parent="HI6m1FKxOW7VXYWXSe8K-6" vertex="1">
          <mxGeometry x="80" y="351" width="90" height="55" as="geometry" />
        </mxCell>
        <mxCell id="HI6m1FKxOW7VXYWXSe8K-17" value="Envia e-mail com texto padrão para cliente e anexa o relatório em .pdf" style="rounded=1;whiteSpace=wrap;html=1;absoluteArcSize=1;arcSize=14;strokeWidth=2;fontSize=9;" parent="HI6m1FKxOW7VXYWXSe8K-6" vertex="1">
          <mxGeometry x="80" y="430" width="90" height="55" as="geometry" />
        </mxCell>
        <mxCell id="qqiFaZxsoZSTqiKRWhiH-60" value="&lt;font style=&quot;font-size: 10px;&quot;&gt;Fim&lt;/font&gt;" style="strokeWidth=2;html=1;shape=mxgraph.flowchart.start_2;whiteSpace=wrap;fillColor=#f8cecc;strokeColor=#b85450;fontSize=6;" parent="HI6m1FKxOW7VXYWXSe8K-6" vertex="1">
          <mxGeometry x="20" y="570" width="20" height="20" as="geometry" />
        </mxCell>
        <mxCell id="qqiFaZxsoZSTqiKRWhiH-63" style="edgeStyle=orthogonalEdgeStyle;rounded=0;orthogonalLoop=1;jettySize=auto;html=1;entryX=1;entryY=0.5;entryDx=0;entryDy=0;entryPerimeter=0;" parent="HI6m1FKxOW7VXYWXSe8K-6" source="HI6m1FKxOW7VXYWXSe8K-16" target="qqiFaZxsoZSTqiKRWhiH-60" edge="1">
          <mxGeometry relative="1" as="geometry">
            <Array as="points">
              <mxPoint x="195" y="580" />
            </Array>
          </mxGeometry>
        </mxCell>
        <mxCell id="qqiFaZxsoZSTqiKRWhiH-64" style="edgeStyle=orthogonalEdgeStyle;rounded=0;orthogonalLoop=1;jettySize=auto;html=1;entryX=0.855;entryY=0.145;entryDx=0;entryDy=0;entryPerimeter=0;" parent="HI6m1FKxOW7VXYWXSe8K-6" source="qqiFaZxsoZSTqiKRWhiH-36" target="qqiFaZxsoZSTqiKRWhiH-60" edge="1">
          <mxGeometry relative="1" as="geometry">
            <Array as="points">
              <mxPoint x="55" y="573" />
            </Array>
          </mxGeometry>
        </mxCell>
        <mxCell id="qqiFaZxsoZSTqiKRWhiH-80" value="&lt;font style=&quot;font-size: 9px;&quot;&gt;Consórcio&lt;/font&gt;" style="text;html=1;align=center;verticalAlign=middle;whiteSpace=wrap;rounded=0;" parent="HI6m1FKxOW7VXYWXSe8K-6" vertex="1">
          <mxGeometry x="140" y="105" width="70" height="30" as="geometry" />
        </mxCell>
        <mxCell id="qqiFaZxsoZSTqiKRWhiH-99" value="&lt;font style=&quot;font-size: 9px;&quot;&gt;Outros&lt;/font&gt;" style="text;html=1;align=center;verticalAlign=middle;whiteSpace=wrap;rounded=0;" parent="HI6m1FKxOW7VXYWXSe8K-6" vertex="1">
          <mxGeometry x="34" y="105" width="70" height="30" as="geometry" />
        </mxCell>
        <mxCell id="qqiFaZxsoZSTqiKRWhiH-100" value="&lt;font style=&quot;font-size: 9px;&quot;&gt;Autoconsumo remoto&lt;/font&gt;" style="text;html=1;align=center;verticalAlign=middle;whiteSpace=wrap;rounded=0;" parent="HI6m1FKxOW7VXYWXSe8K-6" vertex="1">
          <mxGeometry x="120" y="230" width="70" height="30" as="geometry" />
        </mxCell>
        <mxCell id="HI6m1FKxOW7VXYWXSe8K-5" value="SAP CRM WebClient" style="swimlane;whiteSpace=wrap;html=1;" parent="1" vertex="1">
          <mxGeometry x="290" y="50" width="250" height="600" as="geometry" />
        </mxCell>
        <mxCell id="8D-q8osuUyhRN97aRxtg-4" style="edgeStyle=orthogonalEdgeStyle;rounded=0;orthogonalLoop=1;jettySize=auto;html=1;entryX=0.5;entryY=0;entryDx=0;entryDy=0;" edge="1" parent="HI6m1FKxOW7VXYWXSe8K-5" source="HI6m1FKxOW7VXYWXSe8K-12" target="8D-q8osuUyhRN97aRxtg-1">
          <mxGeometry relative="1" as="geometry" />
        </mxCell>
        <mxCell id="HI6m1FKxOW7VXYWXSe8K-12" value="Acessa o FOP &quot;Identificação&quot; para validar informações do e-mail" style="rounded=1;whiteSpace=wrap;html=1;absoluteArcSize=1;arcSize=14;strokeWidth=2;fontSize=9;" parent="HI6m1FKxOW7VXYWXSe8K-5" vertex="1">
          <mxGeometry x="30" y="122" width="90" height="55" as="geometry" />
        </mxCell>
        <mxCell id="HI6m1FKxOW7VXYWXSe8K-14" value="Utiliza o código do cliente para identificar o código da instalação no FOP &quot;Resumo de cliente&quot;" style="rounded=1;whiteSpace=wrap;html=1;absoluteArcSize=1;arcSize=14;strokeWidth=2;fontSize=9;" parent="HI6m1FKxOW7VXYWXSe8K-5" vertex="1">
          <mxGeometry x="140" y="201.5" width="90" height="55" as="geometry" />
        </mxCell>
        <mxCell id="qqiFaZxsoZSTqiKRWhiH-59" value="" style="edgeStyle=orthogonalEdgeStyle;rounded=0;orthogonalLoop=1;jettySize=auto;html=1;" parent="HI6m1FKxOW7VXYWXSe8K-5" source="HI6m1FKxOW7VXYWXSe8K-18" target="HI6m1FKxOW7VXYWXSe8K-19" edge="1">
          <mxGeometry relative="1" as="geometry" />
        </mxCell>
        <mxCell id="HI6m1FKxOW7VXYWXSe8K-18" value="Acessa o FOP &quot;Solicitações&quot;" style="rounded=1;whiteSpace=wrap;html=1;absoluteArcSize=1;arcSize=14;strokeWidth=2;fontSize=9;" parent="HI6m1FKxOW7VXYWXSe8K-5" vertex="1">
          <mxGeometry x="30" y="430" width="90" height="55" as="geometry" />
        </mxCell>
        <mxCell id="qqiFaZxsoZSTqiKRWhiH-102" style="edgeStyle=orthogonalEdgeStyle;rounded=0;orthogonalLoop=1;jettySize=auto;html=1;exitX=1;exitY=0.5;exitDx=0;exitDy=0;entryX=0;entryY=0.5;entryDx=0;entryDy=0;" parent="HI6m1FKxOW7VXYWXSe8K-5" source="HI6m1FKxOW7VXYWXSe8K-19" target="qqiFaZxsoZSTqiKRWhiH-101" edge="1">
          <mxGeometry relative="1" as="geometry" />
        </mxCell>
        <mxCell id="HI6m1FKxOW7VXYWXSe8K-19" value="Registra que comunicação foi feita também com texto padrão" style="rounded=1;whiteSpace=wrap;html=1;absoluteArcSize=1;arcSize=14;strokeWidth=2;fontSize=9;" parent="HI6m1FKxOW7VXYWXSe8K-5" vertex="1">
          <mxGeometry x="30" y="507" width="90" height="55" as="geometry" />
        </mxCell>
        <mxCell id="qqiFaZxsoZSTqiKRWhiH-54" style="edgeStyle=orthogonalEdgeStyle;rounded=0;orthogonalLoop=1;jettySize=auto;html=1;entryX=0.5;entryY=0;entryDx=0;entryDy=0;" parent="HI6m1FKxOW7VXYWXSe8K-5" source="qqiFaZxsoZSTqiKRWhiH-7" target="HI6m1FKxOW7VXYWXSe8K-12" edge="1">
          <mxGeometry relative="1" as="geometry" />
        </mxCell>
        <mxCell id="qqiFaZxsoZSTqiKRWhiH-7" value="Abre SAP CRM WebClient no perfil ZBACK_OFFICE na empresa solicitada" style="rounded=1;whiteSpace=wrap;html=1;absoluteArcSize=1;arcSize=14;strokeWidth=2;fontSize=9;" parent="HI6m1FKxOW7VXYWXSe8K-5" vertex="1">
          <mxGeometry x="30" y="40" width="90" height="55" as="geometry" />
        </mxCell>
        <mxCell id="qqiFaZxsoZSTqiKRWhiH-101" value="Registra que comunicação foi feita no forms de produtividade&amp;nbsp;" style="rounded=1;whiteSpace=wrap;html=1;absoluteArcSize=1;arcSize=14;strokeWidth=2;fontSize=9;" parent="HI6m1FKxOW7VXYWXSe8K-5" vertex="1">
          <mxGeometry x="140" y="507" width="90" height="55" as="geometry" />
        </mxCell>
        <mxCell id="8D-q8osuUyhRN97aRxtg-8" style="edgeStyle=orthogonalEdgeStyle;rounded=0;orthogonalLoop=1;jettySize=auto;html=1;exitX=1;exitY=0.5;exitDx=0;exitDy=0;" edge="1" parent="HI6m1FKxOW7VXYWXSe8K-5" source="8D-q8osuUyhRN97aRxtg-1" target="HI6m1FKxOW7VXYWXSe8K-14">
          <mxGeometry relative="1" as="geometry" />
        </mxCell>
        <mxCell id="8D-q8osuUyhRN97aRxtg-1" value="" style="rhombus;whiteSpace=wrap;html=1;fillColor=#ffe6cc;strokeColor=#d79b00;" vertex="1" parent="HI6m1FKxOW7VXYWXSe8K-5">
          <mxGeometry x="65" y="219" width="20" height="20" as="geometry" />
        </mxCell>
        <mxCell id="8D-q8osuUyhRN97aRxtg-2" value="&lt;font style=&quot;font-size: 9px;&quot;&gt;Informações válidas?&lt;/font&gt;" style="text;html=1;align=center;verticalAlign=middle;whiteSpace=wrap;rounded=0;" vertex="1" parent="HI6m1FKxOW7VXYWXSe8K-5">
          <mxGeometry y="195" width="70" height="30" as="geometry" />
        </mxCell>
        <mxCell id="8D-q8osuUyhRN97aRxtg-22" value="&lt;font style=&quot;font-size: 9px;&quot;&gt;Sim&lt;/font&gt;" style="text;html=1;align=center;verticalAlign=middle;whiteSpace=wrap;rounded=0;" vertex="1" parent="HI6m1FKxOW7VXYWXSe8K-5">
          <mxGeometry x="70" y="201.5" width="70" height="30" as="geometry" />
        </mxCell>
        <mxCell id="8D-q8osuUyhRN97aRxtg-23" value="&lt;font style=&quot;font-size: 9px;&quot;&gt;Não&lt;/font&gt;" style="text;html=1;align=center;verticalAlign=middle;whiteSpace=wrap;rounded=0;" vertex="1" parent="HI6m1FKxOW7VXYWXSe8K-5">
          <mxGeometry x="-5" y="231.5" width="70" height="30" as="geometry" />
        </mxCell>
        <mxCell id="qqiFaZxsoZSTqiKRWhiH-52" style="edgeStyle=orthogonalEdgeStyle;rounded=0;orthogonalLoop=1;jettySize=auto;html=1;entryX=0.004;entryY=0.376;entryDx=0;entryDy=0;entryPerimeter=0;" parent="1" source="qqiFaZxsoZSTqiKRWhiH-5" target="qqiFaZxsoZSTqiKRWhiH-7" edge="1">
          <mxGeometry relative="1" as="geometry" />
        </mxCell>
        <mxCell id="qqiFaZxsoZSTqiKRWhiH-58" style="edgeStyle=orthogonalEdgeStyle;rounded=0;orthogonalLoop=1;jettySize=auto;html=1;entryX=1;entryY=0.5;entryDx=0;entryDy=0;" parent="1" source="HI6m1FKxOW7VXYWXSe8K-17" target="HI6m1FKxOW7VXYWXSe8K-18" edge="1">
          <mxGeometry relative="1" as="geometry" />
        </mxCell>
        <mxCell id="qqiFaZxsoZSTqiKRWhiH-61" style="edgeStyle=orthogonalEdgeStyle;rounded=0;orthogonalLoop=1;jettySize=auto;html=1;" parent="1" source="qqiFaZxsoZSTqiKRWhiH-6" target="qqiFaZxsoZSTqiKRWhiH-60" edge="1">
          <mxGeometry relative="1" as="geometry">
            <Array as="points">
              <mxPoint x="155" y="630" />
            </Array>
          </mxGeometry>
        </mxCell>
        <mxCell id="qqiFaZxsoZSTqiKRWhiH-103" style="edgeStyle=orthogonalEdgeStyle;rounded=0;orthogonalLoop=1;jettySize=auto;html=1;exitX=1;exitY=0.5;exitDx=0;exitDy=0;entryX=0.5;entryY=0;entryDx=0;entryDy=0;entryPerimeter=0;" parent="1" source="qqiFaZxsoZSTqiKRWhiH-101" target="qqiFaZxsoZSTqiKRWhiH-60" edge="1">
          <mxGeometry relative="1" as="geometry" />
        </mxCell>
        <mxCell id="8D-q8osuUyhRN97aRxtg-6" style="edgeStyle=orthogonalEdgeStyle;rounded=0;orthogonalLoop=1;jettySize=auto;html=1;entryX=1;entryY=0.5;entryDx=0;entryDy=0;" edge="1" parent="1" source="8D-q8osuUyhRN97aRxtg-1" target="qqiFaZxsoZSTqiKRWhiH-6">
          <mxGeometry relative="1" as="geometry">
            <Array as="points">
              <mxPoint x="278" y="280" />
              <mxPoint x="278" y="358" />
            </Array>
          </mxGeometry>
        </mxCell>
        <mxCell id="8D-q8osuUyhRN97aRxtg-7" style="edgeStyle=orthogonalEdgeStyle;rounded=0;orthogonalLoop=1;jettySize=auto;html=1;entryX=0;entryY=0.5;entryDx=0;entryDy=0;" edge="1" parent="1" source="HI6m1FKxOW7VXYWXSe8K-14" target="HI6m1FKxOW7VXYWXSe8K-15">
          <mxGeometry relative="1" as="geometry">
            <Array as="points">
              <mxPoint x="475" y="118" />
            </Array>
          </mxGeometry>
        </mxCell>
      </root>
    </mxGraphModel>
  </diagram>
</mxfile>
